# xmcd
#
# Track frame offsets:
#	150
#	13580
#	25035
#	49500
#	60252
#	72799
#	85334
#	99457
#	111997
#	121150
#	138631
#	151510
#	163842
#	177784
#	190969
#
# Disc length: 2701 seconds
#
# Revision: 0
# Processed by: cddbd v1.5.2PL0 Copyright (c) Steve Scherf et al.
# Submitted via: audiograbber 1.83.01
#
DISCID=b70a8b0f
DTITLE=Various Artist - The Soul Story: Volume 4 - Disc 2
DYEAR=2006
DGENRE=Soul
TTITLE0=Marvin Gaye and Kim Weston - It Takes Two
TTITLE1=James Brown and the Famous Flames - Try Me
TTITLE2=B. B. King - The Thrill Is Gone
TTITLE3=The Temptations - Beauty Is Only Skin Deep
TTITLE4=Smokey Robinson and the Miracles - Ooo Baby Baby
TTITLE5=Diana Ross and the Supremes - Love Is Here and Now You're Gone
TTITLE6=Cannonball Adderley - Mercy, Mercy, Mercy
TTITLE7=Mary Wells - Two Lovers
TTITLE8=The Tams - What Kind Of Fool (Do You Think I Am)
TTITLE9=Marvin Gaye - What's Going On
TTITLE10=Brenda Holloway - Every Little Bit Hurts
TTITLE11=Martha Reeves and the Vandellas - (Love Is Like A) Heat Wave
TTITLE12=Joe Hinton - Funny how time slips away
TTITLE13=Young-Holt Unlimited - Soulful Strut
TTITLE14=Ketty Lester - Love Letters
EXTD=
EXTT0=
EXTT1=
EXTT2=
EXTT3=
EXTT4=
EXTT5=
EXTT6=
EXTT7=
EXTT8=
EXTT9=
EXTT10=
EXTT11=
EXTT12=
EXTT13=
EXTT14=
PLAYORDER=
